STARTFONT 2.1
FONT -Adobe-Helvetica-Medium-O-Narrow--33-240-100-100-P-140-ISO8859-1
SIZE 24 100 100
FONTBOUNDINGBOX 35 34 -5 -6

STARTPROPERTIES 26
_DEC_DEVICE_FONTNAMES "PS=Helvetica-Narrow-Oblique"
FONTNAME_REGISTRY ""
FAMILY_NAME "Helvetica"
FOUNDRY "Adobe"
WEIGHT_NAME "Medium"
SLANT "O"
SETWIDTH_NAME "Narrow"
ADD_STYLE_NAME ""
PIXEL_SIZE 33
POINT_SIZE 240
RESOLUTION_X 100
RESOLUTION_Y 100
SPACING "P"
AVERAGE_WIDTH 140
CHARSET_REGISTRY "ISO8859"
CHARSET_ENCODING "1"
CHARSET_COLLECTIONS "ASCII ISO8859-1 ADOBE-STANDARD"
FULL_NAME "Helvetica Narrow Oblique"
COPYRIGHT "Copyright (c) 1991 Adobe Systems, Inc."
CAP_HEIGHT 24
X_HEIGHT 17
WEIGHT 10
QUAD_WIDTH 16
DEFAULT_CHAR 0
FONT_DESCENT 6
FONT_ASCENT 28
ENDPROPERTIES

CHARS 190

STARTCHAR space
ENCODING 32
SWIDTH 228 0
DWIDTH 7 0
BBX 1 1 0 0
BITMAP
00
ENDCHAR

STARTCHAR exclam
ENCODING 33
SWIDTH 228 0
DWIDTH 7 0
BBX 6 24 3 0
BITMAP
0C
0C
0C
0C
18
18
18
18
18
18
30
30
30
30
20
20
20
20
60
00
00
E0
C0
C0
ENDCHAR

STARTCHAR quotedbl
ENCODING 34
SWIDTH 291 0
DWIDTH 9 0
BBX 7 8 5 15
BITMAP
66
66
EE
EE
CC
CC
CC
88
ENDCHAR

STARTCHAR numbersign
ENCODING 35
SWIDTH 456 0
DWIDTH 15 0
BBX 16 23 1 0
BITMAP
00E3
00C3
00C6
0086
0186
018C
010C
1FFF
1FFF
1FFF
0618
0630
0630
0C30
7FFC
7FFC
FFF8
18C0
10C0
30C0
3180
2180
6380
ENDCHAR

STARTCHAR dollar
ENCODING 36
SWIDTH 456 0
DWIDTH 15 0
BBX 14 29 2 -4
BITMAP
00C0
00C0
03F0
07F8
0C98
189C
108C
319C
3180
3100
3900
3F00
1F80
0FE0
03F0
0270
0230
0230
C630
C630
C460
C460
E5C0
7F80
3F00
0C00
0800
0800
0800
ENDCHAR

STARTCHAR percent
ENCODING 37
SWIDTH 729 0
DWIDTH 24 0
BBX 20 24 4 -1
BITMAP
0000C0
1E0080
3F0180
738300
618200
C18600
C18C00
C18800
C31800
FE1000
7C2000
386000
004180
00C7E0
018FE0
010C30
031830
021830
041830
0C1860
0818E0
180FC0
300700
200000
ENDCHAR

STARTCHAR ampersand
ENCODING 38
SWIDTH 547 0
DWIDTH 18 0
BBX 15 23 2 0
BITMAP
00F0
03F8
0718
0618
0E18
0E18
0E38
0670
07E0
07C0
0780
1F82
39C6
70CC
60EC
C078
C078
C038
C078
E0FC
FFDC
7F0E
1C00
ENDCHAR

STARTCHAR quoteright
ENCODING 39
SWIDTH 182 0
DWIDTH 6 0
BBX 4 8 4 15
BITMAP
30
30
70
30
20
20
40
C0
ENDCHAR

STARTCHAR parenleft
ENCODING 40
SWIDTH 273 0
DWIDTH 9 0
BBX 9 28 3 -6
BITMAP
0080
0100
0200
0600
0C00
0C00
1800
1800
3000
3000
2000
6000
6000
6000
C000
C000
C000
C000
C000
C000
C000
C000
C000
4000
4000
6000
6000
2000
ENDCHAR

STARTCHAR parenright
ENCODING 41
SWIDTH 273 0
DWIDTH 9 0
BBX 9 28 0 -6
BITMAP
0400
0200
0300
0300
0300
0100
0180
0180
0180
0180
0180
0180
0180
0180
0300
0300
0300
0300
0600
0600
0400
0C00
0800
1800
1000
3000
6000
C000
ENDCHAR

STARTCHAR asterisk
ENCODING 42
SWIDTH 319 0
DWIDTH 10 0
BBX 8 10 4 14
BITMAP
0C
0C
08
6B
FF
1C
3C
2C
44
44
ENDCHAR

STARTCHAR plus
ENCODING 43
SWIDTH 479 0
DWIDTH 15 0
BBX 13 16 2 -1
BITMAP
0180
0100
0300
0300
0300
0200
0200
FFF8
FFF0
0600
0600
0400
0400
0C00
0C00
0C00
ENDCHAR

STARTCHAR comma
ENCODING 44
SWIDTH 228 0
DWIDTH 7 0
BBX 4 8 1 -5
BITMAP
30
70
70
10
20
20
40
80
ENDCHAR

STARTCHAR minus
ENCODING 45
SWIDTH 479 0
DWIDTH 16 0
BBX 14 2 2 6
BITMAP
FFFC
FFF8
ENDCHAR

STARTCHAR period
ENCODING 46
SWIDTH 228 0
DWIDTH 7 0
BBX 3 3 2 0
BITMAP
60
E0
C0
ENDCHAR

STARTCHAR slash
ENCODING 47
SWIDTH 228 0
DWIDTH 8 0
BBX 12 23 0 0
BITMAP
0030
0020
0020
0040
0040
00C0
0080
0180
0100
0300
0200
0200
0400
0400
0800
0800
1800
1000
3000
2000
2000
4000
C000
ENDCHAR

STARTCHAR zero
ENCODING 48
SWIDTH 456 0
DWIDTH 16 0
BBX 14 23 3 0
BITMAP
01E0
03F0
0FF8
0C38
1818
1818
301C
301C
3018
6018
6018
6018
6018
6018
6030
E030
E030
6060
6060
70C0
7FC0
3F00
1E00
ENDCHAR

STARTCHAR one
ENCODING 49
SWIDTH 456 0
DWIDTH 15 0
BBX 8 23 5 0
BITMAP
03
03
07
06
3E
7E
FE
06
06
0C
0C
0C
0C
0C
18
18
18
18
18
18
30
30
30
ENDCHAR

STARTCHAR two
ENCODING 50
SWIDTH 456 0
DWIDTH 15 0
BBX 16 22 1 0
BITMAP
00FC
03FE
078E
0607
0E03
0C03
0C03
1006
0006
000C
001C
0078
01E0
03C0
0F00
1C00
1800
3000
3000
7FFC
7FF8
FFF8
ENDCHAR

STARTCHAR three
ENCODING 51
SWIDTH 456 0
DWIDTH 15 0
BBX 14 23 2 0
BITMAP
01E0
07F0
0FF8
1C18
181C
181C
3018
0018
0038
0070
03E0
03E0
0070
0030
0030
0030
C030
C030
C070
E0E0
7FC0
7F80
1E00
ENDCHAR

STARTCHAR four
ENCODING 52
SWIDTH 456 0
DWIDTH 15 0
BBX 13 23 2 0
BITMAP
0018
0038
0038
0070
00F0
01B0
01B0
0330
0630
0C60
0C60
1860
3060
6060
60C0
FFF8
FFF8
FFF0
00C0
00C0
0180
0180
0180
ENDCHAR

STARTCHAR five
ENCODING 53
SWIDTH 456 0
DWIDTH 14 0
BBX 14 23 2 0
BITMAP
07FC
0FFC
0FFC
0C00
0800
1800
1800
1800
33C0
3FE0
3FF0
3070
6038
0038
0038
0030
0030
C030
C060
E0E0
FFC0
7F80
1E00
ENDCHAR

STARTCHAR six
ENCODING 54
SWIDTH 456 0
DWIDTH 15 0
BBX 14 23 2 0
BITMAP
00E0
03F0
07F8
0E18
1C1C
181C
3800
3000
3000
67C0
6FE0
7C70
7030
6030
E038
E030
C030
C030
6060
60E0
71C0
3F80
1F00
ENDCHAR

STARTCHAR seven
ENCODING 55
SWIDTH 456 0
DWIDTH 15 0
BBX 14 23 4 0
BITMAP
7FFC
7FF8
7FF8
0038
0030
0060
00C0
00C0
0180
0300
0300
0600
0600
0C00
1800
1800
3800
3000
3000
6000
6000
E000
C000
ENDCHAR

STARTCHAR eight
ENCODING 56
SWIDTH 456 0
DWIDTH 14 0
BBX 13 22 2 0
BITMAP
03E0
07F8
0E38
1818
1818
3818
3818
3838
1C70
0FE0
1FE0
3870
7030
6030
C030
C030
C030
C060
E0E0
7FC0
3F80
1E00
ENDCHAR

STARTCHAR nine
ENCODING 57
SWIDTH 456 0
DWIDTH 14 0
BBX 13 23 2 0
BITMAP
01E0
07F0
0FF8
1C38
1818
3018
3018
3018
7018
7018
7038
3078
38F8
3FD8
0F10
0030
0030
C060
C060
E0C0
7F80
7F00
3C00
ENDCHAR

STARTCHAR colon
ENCODING 58
SWIDTH 228 0
DWIDTH 8 0
BBX 6 17 3 0
BITMAP
1C
18
38
00
00
00
00
00
00
00
00
00
00
00
60
E0
E0
ENDCHAR

STARTCHAR semicolon
ENCODING 59
SWIDTH 228 0
DWIDTH 8 0
BBX 7 21 2 -5
BITMAP
0E
0C
1C
00
00
00
00
00
00
00
00
00
00
30
70
70
10
20
20
40
80
ENDCHAR

STARTCHAR less
ENCODING 60
SWIDTH 479 0
DWIDTH 16 0
BBX 15 16 2 -1
BITMAP
0002
000C
003C
00F0
03C0
0F00
3C00
7000
F000
7800
1E00
0780
03E0
00F0
0030
0010
ENDCHAR

STARTCHAR equal
ENCODING 61
SWIDTH 479 0
DWIDTH 15 0
BBX 14 8 2 3
BITMAP
7FFC
7FFC
0000
0000
0000
FFF8
FFF8
8000
ENDCHAR

STARTCHAR greater
ENCODING 62
SWIDTH 479 0
DWIDTH 15 0
BBX 14 16 1 -1
BITMAP
2000
3800
3C00
1F00
07C0
01F0
0078
001C
001C
00F8
03E0
0F80
3C00
F000
C000
8000
ENDCHAR

STARTCHAR question
ENCODING 63
SWIDTH 456 0
DWIDTH 14 0
BBX 11 24 5 0
BITMAP
0FC0
1FE0
38E0
7060
6060
E060
C060
C060
00C0
00C0
0180
0300
0600
0E00
0C00
1800
1800
1800
0000
0000
0000
3800
3000
3000
ENDCHAR

STARTCHAR at
ENCODING 64
SWIDTH 832 0
DWIDTH 26 0
BBX 25 28 2 -4
BITMAP
0007E000
003FF800
00F83E00
01E00E00
03800700
07000380
0E000380
0C0F0980
181FB180
1839F180
3060E180
30E0E180
60C0C180
6180C180
6180C300
E3818300
C3818600
C3830600
C3870C00
E38F1800
E1FBF000
60E1E000
70000000
78000000
3C000000
1F030000
07FF0000
03FC0000
ENDCHAR

STARTCHAR A
ENCODING 65
SWIDTH 547 0
DWIDTH 17 0
BBX 17 24 0 0
BITMAP
001C00
001C00
003C00
003C00
007E00
006E00
00EE00
00CE00
01CE00
018E00
038600
030600
070600
060700
060700
0FFF00
0FFF00
1C0700
180700
380300
300300
700300
600380
E00380
ENDCHAR

STARTCHAR B
ENCODING 66
SWIDTH 547 0
DWIDTH 17 0
BBX 16 24 2 0
BITMAP
0FFC
0FFE
0FFF
1C07
1C03
1803
1803
1803
1807
3806
380E
3FFC
3FF8
3FFE
300E
7006
6006
6006
6006
600E
E01C
FFF8
FFF0
FFE0
ENDCHAR

STARTCHAR C
ENCODING 67
SWIDTH 592 0
DWIDTH 18 0
BBX 16 24 3 0
BITMAP
00F0
03F8
07FC
0E0E
1C06
3806
3007
7007
6000
6000
C000
C000
C000
C000
C000
C00E
C00C
C01C
C018
E030
7070
7FE0
3F80
0F00
ENDCHAR

STARTCHAR D
ENCODING 68
SWIDTH 592 0
DWIDTH 18 0
BBX 17 24 2 0
BITMAP
0FF800
0FFC00
0FFE00
1C0700
180700
180300
180380
180380
180380
380380
300300
300300
300300
300300
300700
700600
600600
600E00
600C00
601800
E03800
FFF000
FFE000
FF8000
ENDCHAR

STARTCHAR E
ENCODING 69
SWIDTH 547 0
DWIDTH 17 0
BBX 17 24 2 0
BITMAP
0FFF80
0FFF80
0FFF80
1C0000
1C0000
180000
180000
180000
180000
380000
300000
3FFE00
3FFE00
3FFC00
300000
700000
600000
600000
600000
600000
E00000
FFFC00
FFFC00
FFFC00
ENDCHAR

STARTCHAR F
ENCODING 70
SWIDTH 501 0
DWIDTH 16 0
BBX 17 24 2 0
BITMAP
0FFF80
0FFF00
0FFF00
1C0000
1C0000
180000
180000
180000
180000
380000
300000
3FFC00
3FF800
3FF800
300000
700000
600000
600000
600000
600000
E00000
E00000
C00000
C00000
ENDCHAR

STARTCHAR G
ENCODING 71
SWIDTH 638 0
DWIDTH 21 0
BBX 19 24 3 0
BITMAP
007C00
01FF00
07FF80
0F03C0
1C01C0
3800E0
3800E0
700000
600000
600000
E00000
C03FC0
C03FC0
C07FC0
C000C0
C00180
C00180
E00380
E00380
F00780
781F80
3FF900
1FF100
078000
ENDCHAR

STARTCHAR H
ENCODING 72
SWIDTH 592 0
DWIDTH 19 0
BBX 19 24 2 0
BITMAP
0E0060
0C0060
0C0060
1C00E0
1C00E0
1800C0
1800C0
1800C0
1801C0
3801C0
380180
3FFF80
3FFF80
3FFF80
300380
700380
700300
600300
600300
600300
E00700
E00700
C00600
C00600
ENDCHAR

STARTCHAR I
ENCODING 73
SWIDTH 228 0
DWIDTH 7 0
BBX 6 24 3 0
BITMAP
0C
0C
0C
1C
1C
18
18
18
18
38
30
30
30
30
30
70
60
60
60
60
E0
E0
C0
C0
ENDCHAR

STARTCHAR J
ENCODING 74
SWIDTH 410 0
DWIDTH 12 0
BBX 13 24 1 0
BITMAP
0018
0018
0018
0038
0038
0030
0030
0030
0030
0070
0060
0060
0060
0060
0060
00E0
E0C0
C0C0
C0C0
C1C0
E380
FF00
7F00
3C00
ENDCHAR

STARTCHAR K
ENCODING 75
SWIDTH 547 0
DWIDTH 18 0
BBX 19 24 2 0
BITMAP
0C00E0
0C01C0
0C0380
1C0700
1C0E00
181C00
183800
187000
18E000
39C000
3BC000
3FC000
3EC000
3CE000
386000
707000
607000
603000
603800
603800
E01C00
E01C00
C00C00
C00E00
ENDCHAR

STARTCHAR L
ENCODING 76
SWIDTH 456 0
DWIDTH 14 0
BBX 12 24 2 0
BITMAP
0C00
0C00
0C00
1C00
1C00
1800
1800
1800
1800
3800
3000
3000
3000
3000
3000
7000
6000
6000
6000
6000
E000
FFF0
FFF0
FFF0
ENDCHAR

STARTCHAR M
ENCODING 77
SWIDTH 683 0
DWIDTH 23 0
BBX 23 24 2 0
BITMAP
0F001E
0F001E
0F003C
0F003C
0F007C
0F006C
1F807C
1D80DC
1980D8
198198
198198
198338
398338
398630
318630
31CE30
31CC30
70CC70
70D870
60D860
60F060
60F060
60E060
E0E0E0
ENDCHAR

STARTCHAR N
ENCODING 78
SWIDTH 592 0
DWIDTH 19 0
BBX 19 24 2 0
BITMAP
0E0060
0E0060
0F0060
1F00E0
1F00E0
1B80C0
1B80C0
1980C0
19C0C0
39C1C0
38C180
30E180
30E180
306180
307380
703380
603300
603B00
601B00
601F00
E01F00
E00F00
C00E00
C00E00
ENDCHAR

STARTCHAR O
ENCODING 79
SWIDTH 638 0
DWIDTH 21 0
BBX 19 24 3 0
BITMAP
007800
01FE00
07FF00
0F0380
1C01C0
3801C0
3000C0
7000C0
6000E0
6000E0
E000C0
C000C0
C000C0
C000C0
C001C0
C00180
C00380
C00300
E00700
E00E00
781C00
3FF800
1FF000
078000
ENDCHAR

STARTCHAR P
ENCODING 80
SWIDTH 547 0
DWIDTH 16 0
BBX 16 24 2 0
BITMAP
0FFC
0FFE
0FFF
1C07
1C03
1803
1803
1803
1807
3806
300E
3FFC
3FF8
3FE0
3000
7000
6000
6000
6000
6000
E000
E000
C000
C000
ENDCHAR

STARTCHAR Q
ENCODING 81
SWIDTH 638 0
DWIDTH 21 0
BBX 19 25 3 -1
BITMAP
007800
01FE00
07FF00
0F0380
1C01C0
3801C0
3000C0
7000C0
6000E0
6000E0
E000C0
C000C0
C000C0
C000C0
C001C0
C00180
C00380
C02300
E07700
E03E00
783C00
3FFE00
1FF700
078700
000200
ENDCHAR

STARTCHAR R
ENCODING 82
SWIDTH 592 0
DWIDTH 18 0
BBX 17 24 2 0
BITMAP
0FFE00
0FFF00
0FFF80
1C0380
1C0180
180180
180180
180180
180380
380300
300700
3FFE00
3FFC00
3FFE00
300E00
700600
600600
600600
600E00
600E00
E00E00
E00E00
C00E00
C00E00
ENDCHAR

STARTCHAR S
ENCODING 83
SWIDTH 547 0
DWIDTH 18 0
BBX 17 24 2 0
BITMAP
007800
03FE00
07FF00
0E0780
0C0380
180180
180180
180000
1C0000
1E0000
1FC000
0FF800
01FE00
003E00
000F00
000700
600700
E00700
E00600
600E00
701C00
3FF800
3FF000
0FC000
ENDCHAR

STARTCHAR T
ENCODING 84
SWIDTH 501 0
DWIDTH 17 0
BBX 16 24 4 0
BITMAP
7FFF
FFFE
FFFE
0380
0380
0300
0300
0300
0300
0700
0600
0600
0600
0600
0600
0E00
0C00
0C00
0C00
0C00
1C00
1C00
1800
1800
ENDCHAR

STARTCHAR U
ENCODING 85
SWIDTH 592 0
DWIDTH 19 0
BBX 18 24 3 0
BITMAP
1C00C0
1800C0
1800C0
3801C0
3801C0
300180
300180
300180
300380
700380
700300
600300
600300
600300
600700
E00700
E00600
E00600
E00E00
E01C00
703C00
7FF800
3FE000
0F8000
ENDCHAR

STARTCHAR V
ENCODING 86
SWIDTH 547 0
DWIDTH 19 0
BBX 17 24 5 0
BITMAP
E00380
600300
600700
600600
700E00
700C00
701C00
701800
303800
303000
303000
306000
306000
30C000
38C000
39C000
398000
198000
1B0000
1B0000
1E0000
1E0000
1C0000
1C0000
ENDCHAR

STARTCHAR W
ENCODING 87
SWIDTH 774 0
DWIDTH 27 0
BBX 25 24 5 0
BITMAP
E01C0380
601C0300
603C0700
603C0700
603C0600
606C0E00
606C0C00
60EC0C00
60CE1C00
60CE1800
618E3800
618E3000
630E3000
630E7000
67066000
66066000
6606E000
6C06C000
6C06C000
7C078000
78078000
78078000
70070000
70070000
ENDCHAR

STARTCHAR X
ENCODING 88
SWIDTH 547 0
DWIDTH 19 0
BBX 21 24 1 0
BITMAP
070078
070070
0380E0
0381C0
018180
01C380
01C700
00CE00
00EC00
00FC00
007800
007000
007000
00F800
01F800
039C00
031C00
070C00
0E0E00
0C0E00
1C0600
380700
700700
F00380
ENDCHAR

STARTCHAR Y
ENCODING 89
SWIDTH 547 0
DWIDTH 18 0
BBX 17 24 4 0
BITMAP
E00780
E00700
E00E00
700C00
701C00
703800
303000
387000
38E000
18C000
1DC000
1F8000
0F0000
0F0000
0E0000
0E0000
0C0000
0C0000
0C0000
0C0000
1C0000
1C0000
180000
180000
ENDCHAR

STARTCHAR Z
ENCODING 90
SWIDTH 501 0
DWIDTH 16 0
BBX 18 24 1 0
BITMAP
07FFC0
07FFC0
0FFFC0
000380
000380
000700
000E00
001C00
003800
003800
007000
00E000
01C000
038000
038000
070000
0E0000
1C0000
180000
380000
700000
FFFE00
FFFC00
FFFC00
ENDCHAR

STARTCHAR bracketleft
ENCODING 91
SWIDTH 228 0
DWIDTH 7 0
BBX 10 29 0 -6
BITMAP
07C0
07C0
0600
0E00
0C00
0C00
0C00
0C00
0C00
1800
1800
1800
1800
1800
1800
3000
3000
3000
3000
3000
6000
6000
6000
6000
6000
6000
C000
F800
F800
ENDCHAR

STARTCHAR backslash
ENCODING 92
SWIDTH 228 0
DWIDTH 8 0
BBX 4 24 4 0
BITMAP
80
80
C0
C0
C0
C0
40
40
40
40
40
40
40
60
60
60
60
20
20
20
20
20
20
30
ENDCHAR

STARTCHAR bracketright
ENCODING 93
SWIDTH 228 0
DWIDTH 7 0
BBX 10 29 -1 -6
BITMAP
07C0
07C0
00C0
00C0
0180
0180
0180
0180
0180
0300
0300
0300
0300
0300
0300
0600
0600
0600
0600
0600
0C00
0C00
0C00
0C00
0C00
0C00
1800
7800
F800
ENDCHAR

STARTCHAR asciicircum
ENCODING 94
SWIDTH 385 0
DWIDTH 12 0
BBX 10 12 3 11
BITMAP
0300
0700
0700
0D00
0980
1980
1180
3180
2080
6080
40C0
C0C0
ENDCHAR

STARTCHAR underscore
ENCODING 95
SWIDTH 456 0
DWIDTH 14 0
BBX 14 2 -1 -6
BITMAP
FFFC
FFFC
ENDCHAR

STARTCHAR quoteleft
ENCODING 96
SWIDTH 182 0
DWIDTH 6 0
BBX 4 7 4 15
BITMAP
10
20
40
40
60
60
E0
ENDCHAR

STARTCHAR a
ENCODING 97
SWIDTH 456 0
DWIDTH 14 0
BBX 12 17 2 0
BITMAP
07E0
0FF0
1870
3030
3030
0030
0070
07F0
3FF0
7860
E060
C060
C0E0
C0E0
E3E0
FEF0
7C70
ENDCHAR

STARTCHAR b
ENCODING 98
SWIDTH 456 0
DWIDTH 13 0
BBX 13 24 1 0
BITMAP
0C00
0C00
0C00
0800
1800
1800
1800
19C0
1BF0
1FF0
3C38
3838
3018
3018
3018
6038
6030
6030
6070
6060
70E0
FFC0
DF80
0E00
ENDCHAR

STARTCHAR c
ENCODING 99
SWIDTH 410 0
DWIDTH 13 0
BBX 12 17 2 0
BITMAP
07C0
0FE0
1C70
3830
3030
6030
6000
6000
E000
C000
C020
C060
E0C0
61C0
7F80
3F00
1C00
ENDCHAR

STARTCHAR d
ENCODING 100
SWIDTH 456 0
DWIDTH 15 0
BBX 15 24 2 0
BITMAP
0006
0006
0006
0006
000C
000C
000C
038C
0FEC
1FFC
3838
3038
7038
6038
6038
E030
E030
E030
E030
E070
60F0
7FE0
3F60
1E00
ENDCHAR

STARTCHAR e
ENCODING 101
SWIDTH 456 0
DWIDTH 14 0
BBX 13 17 2 0
BITMAP
03C0
0FF0
1C30
3838
3018
6018
6018
7FF8
FFF8
C000
C000
C030
C060
E0E0
71C0
7F80
1F00
ENDCHAR

STARTCHAR f
ENCODING 102
SWIDTH 228 0
DWIDTH 8 0
BBX 9 24 2 0
BITMAP
0780
0F00
0C00
0C00
1800
1800
1800
7E00
7E00
3800
3000
3000
3000
3000
3000
6000
6000
6000
6000
6000
6000
C000
C000
C000
ENDCHAR

STARTCHAR g
ENCODING 103
SWIDTH 456 0
DWIDTH 15 0
BBX 15 22 1 -6
BITMAP
01C0
07F6
0FFE
1C1C
181C
381C
301C
301C
7018
6018
6018
6038
7038
38F0
3FB0
0F30
0030
C060
C060
E1C0
7F80
3E00
ENDCHAR

STARTCHAR h
ENCODING 104
SWIDTH 456 0
DWIDTH 15 0
BBX 13 24 2 0
BITMAP
0C00
0C00
0C00
0C00
1800
1800
1800
19F0
1BF8
1E38
3818
3818
3018
3018
3018
7030
6030
6030
6030
6030
6030
C060
C060
C060
ENDCHAR

STARTCHAR i
ENCODING 105
SWIDTH 182 0
DWIDTH 6 0
BBX 6 24 2 0
BITMAP
0C
0C
1C
00
00
00
00
18
18
18
30
30
30
30
30
60
60
60
60
60
60
C0
C0
C0
ENDCHAR

STARTCHAR j
ENCODING 106
SWIDTH 182 0
DWIDTH 6 0
BBX 10 28 -2 -6
BITMAP
00C0
00C0
01C0
0000
0000
0000
0180
0180
0380
0300
0300
0300
0300
0300
0600
0600
0600
0600
0600
0C00
0C00
0C00
0C00
0C00
0C00
1800
7800
F000
ENDCHAR

STARTCHAR k
ENCODING 107
SWIDTH 410 0
DWIDTH 14 0
BBX 14 24 2 0
BITMAP
0C00
0C00
0C00
0C00
1800
1800
1800
183C
1870
18E0
31C0
3380
3700
3F00
3F00
7B80
7180
6180
61C0
60C0
60C0
C0E0
C060
C070
ENDCHAR

STARTCHAR l
ENCODING 108
SWIDTH 182 0
DWIDTH 6 0
BBX 6 24 2 0
BITMAP
0C
0C
0C
0C
18
18
18
18
18
18
30
30
30
30
30
60
60
60
60
60
60
C0
C0
C0
ENDCHAR

STARTCHAR m
ENCODING 109
SWIDTH 683 0
DWIDTH 21 0
BBX 20 17 2 0
BITMAP
19E3E0
1FF7F0
1E7C70
383830
383030
303030
303030
303030
606060
606060
606060
606060
606060
606060
C0C0C0
C0C0C0
C0C0C0
ENDCHAR

STARTCHAR n
ENCODING 110
SWIDTH 456 0
DWIDTH 15 0
BBX 13 17 2 0
BITMAP
19F0
1BF8
1E38
3C18
3818
3018
3018
3018
7030
6030
6030
6030
6030
6030
C060
C060
C060
ENDCHAR

STARTCHAR o
ENCODING 111
SWIDTH 456 0
DWIDTH 14 0
BBX 13 17 2 0
BITMAP
03C0
0FE0
1FF0
3830
3038
6038
6038
6038
E030
C030
C030
E070
E060
60E0
7FC0
3F80
1E00
ENDCHAR

STARTCHAR p
ENCODING 112
SWIDTH 456 0
DWIDTH 13 0
BBX 14 22 0 -6
BITMAP
09F0
0BF8
1E38
1C1C
1C0C
180C
180C
100C
3018
3018
3018
3030
3870
7FE0
6FC0
6780
6000
6000
4000
C000
C000
C000
ENDCHAR

STARTCHAR q
ENCODING 113
SWIDTH 456 0
DWIDTH 15 0
BBX 14 22 2 -6
BITMAP
07CC
0FEC
1C7C
3838
7018
6018
6018
E018
E030
E030
E030
E070
E0F0
7FE0
3F60
1E60
0060
0060
0060
00C0
00C0
00C0
ENDCHAR

STARTCHAR r
ENCODING 114
SWIDTH 273 0
DWIDTH 9 0
BBX 10 17 2 0
BITMAP
01C0
1B80
1F80
3C00
3800
3000
3000
3000
6000
6000
6000
6000
6000
6000
C000
C000
C000
ENDCHAR

STARTCHAR s
ENCODING 115
SWIDTH 410 0
DWIDTH 14 0
BBX 13 17 2 0
BITMAP
07E0
0FF0
1C70
3838
3038
3000
3800
3F00
0FE0
03F0
0070
0030
E030
E060
70E0
7FC0
3F00
ENDCHAR

STARTCHAR t
ENCODING 116
SWIDTH 228 0
DWIDTH 8 0
BBX 7 21 3 0
BITMAP
0C
18
18
18
7E
7E
38
30
30
30
30
30
60
60
60
60
60
60
F8
70
70
ENDCHAR

STARTCHAR u
ENCODING 117
SWIDTH 456 0
DWIDTH 14 0
BBX 13 17 2 0
BITMAP
3018
3018
3038
6030
6030
6030
6030
6030
E060
C060
C060
C060
C0E0
C1E0
FFC0
FEC0
7800
ENDCHAR

STARTCHAR v
ENCODING 118
SWIDTH 410 0
DWIDTH 13 0
BBX 12 17 3 0
BITMAP
C030
C070
E060
E0E0
E0C0
60C0
6180
6180
6300
6300
6600
6600
6C00
3C00
3800
3800
3000
ENDCHAR

STARTCHAR w
ENCODING 119
SWIDTH 592 0
DWIDTH 19 0
BBX 19 17 3 0
BITMAP
E0E0E0
E0E0C0
E1E1C0
E1E180
61E180
636300
636300
666300
666600
666600
6C6C00
6C6C00
686800
787800
787800
707000
707000
ENDCHAR

STARTCHAR x
ENCODING 120
SWIDTH 410 0
DWIDTH 13 0
BBX 15 17 0 0
BITMAP
1C0E
0C1C
0C18
0630
0660
07E0
03C0
0380
0380
0780
0780
0CC0
1CC0
18E0
3060
6060
E070
ENDCHAR

STARTCHAR y
ENCODING 121
SWIDTH 410 0
DWIDTH 13 0
BBX 15 22 0 -6
BITMAP
1C06
1C0C
1C0C
0C18
0C18
0C30
0C30
0C60
0C60
0EC0
0EC0
0F80
0780
0700
0700
0600
0600
0C00
0C00
9800
F800
E000
ENDCHAR

STARTCHAR z
ENCODING 122
SWIDTH 410 0
DWIDTH 14 0
BBX 14 17 1 0
BITMAP
1FFC
1FF8
1FF8
0030
0060
00E0
01C0
0380
0300
0600
0C00
1800
3800
7000
FFF0
FFE0
FFE0
ENDCHAR

STARTCHAR braceleft
ENCODING 123
SWIDTH 274 0
DWIDTH 8 0
BBX 9 28 2 -6
BITMAP
0380
0780
0600
0400
0C00
0C00
0C00
0C00
0800
1800
1800
1800
3000
6000
E000
6000
3000
3000
3000
2000
6000
6000
6000
6000
6000
6000
7000
7000
ENDCHAR

STARTCHAR bar
ENCODING 124
SWIDTH 213 0
DWIDTH 7 0
BBX 7 28 1 -6
BITMAP
06
06
04
04
04
0C
0C
08
08
08
18
18
10
10
10
10
30
30
20
20
20
60
60
40
40
40
C0
C0
ENDCHAR

STARTCHAR braceright
ENCODING 125
SWIDTH 274 0
DWIDTH 8 0
BBX 8 29 0 -6
BITMAP
07
07
03
01
03
03
03
03
03
02
06
06
06
03
03
03
06
0C
0C
0C
08
18
18
18
18
10
30
F0
C0
ENDCHAR

STARTCHAR asciitilde
ENCODING 126
SWIDTH 479 0
DWIDTH 17 0
BBX 13 5 4 9
BITMAP
3C18
3E10
4730
C3E0
01C0
ENDCHAR

STARTCHAR exclamdown
ENCODING 161
SWIDTH 273 0
DWIDTH 8 0
BBX 6 22 2 -6
BITMAP
0C
0C
1C
00
00
18
10
10
10
30
30
30
30
60
60
60
60
60
60
C0
C0
C0
ENDCHAR

STARTCHAR cent
ENCODING 162
SWIDTH 456 0
DWIDTH 14 0
BBX 12 23 3 -3
BITMAP
0020
0040
0040
03C0
0FE0
1CF0
3930
3130
6130
6200
6200
C200
C400
C400
C860
C860
E8C0
7180
7F80
3E00
2000
2000
4000
ENDCHAR

STARTCHAR sterling
ENCODING 163
SWIDTH 456 0
DWIDTH 14 0
BBX 15 23 1 0
BITMAP
00F0
01FC
07FC
060E
0C06
0C06
1C06
1C04
1C00
1C00
0C00
3FC0
7FC0
0E00
0C00
0C00
0C00
1800
1000
2608
FFF8
7FF8
41E0
ENDCHAR

STARTCHAR currency
ENCODING 164
SWIDTH 456 0
DWIDTH 14 0
BBX 12 14 3 4
BITMAP
2010
37B0
3FF0
3FE0
30E0
6060
6060
6060
60C0
61C0
7FC0
FFE0
CCC0
8040
ENDCHAR

STARTCHAR yen
ENCODING 165
SWIDTH 456 0
DWIDTH 15 0
BBX 16 24 3 0
BITMAP
0001
3003
1006
180C
180C
0818
0C10
0C30
0C60
0440
06C0
0780
3FF8
7FF0
0300
0200
0600
7FF0
FFE0
0600
0600
0400
0C00
0C00
ENDCHAR

STARTCHAR brokenbar
ENCODING 166
SWIDTH 213 0
DWIDTH 7 0
BBX 7 30 1 -6
BITMAP
06
06
04
04
04
04
0C
0C
08
08
08
18
00
00
00
00
00
00
30
20
20
20
20
60
60
40
40
40
40
C0
ENDCHAR

STARTCHAR section
ENCODING 167
SWIDTH 456 0
DWIDTH 14 0
BBX 13 29 2 -6
BITMAP
01F0
03F8
0738
0E18
0C18
0C18
0C00
0E00
0F80
1BC0
31E0
60F0
6070
6030
6038
7030
7830
3C30
1E60
0FC0
0780
0380
0180
C180
C180
C180
E700
FE00
7C00
ENDCHAR

STARTCHAR dieresis
ENCODING 168
SWIDTH 273 0
DWIDTH 9 0
BBX 8 3 4 20
BITMAP
63
E7
C6
ENDCHAR

STARTCHAR copyright
ENCODING 169
SWIDTH 604 0
DWIDTH 18 0
BBX 20 24 1 0
BITMAP
007E00
01C380
0300C0
0C0060
080020
107830
20FE10
218610
430210
420310
860010
840010
840010
840010
840620
840420
860C20
831840
C1F080
400180
600300
300600
1C1800
07E000
ENDCHAR

STARTCHAR ordfeminine
ENCODING 170
SWIDTH 303 0
DWIDTH 10 0
BBX 9 15 3 9
BITMAP
0F00
1180
2180
0180
0100
3F00
6100
4100
4300
4700
7980
0000
0000
FF00
FE00
ENDCHAR

STARTCHAR guillemotleft
ENCODING 171
SWIDTH 456 0
DWIDTH 14 0
BBX 10 11 4 3
BITMAP
0840
0840
38C0
7380
E300
C600
C600
E300
7380
3180
1080
ENDCHAR

STARTCHAR logicalnot
ENCODING 172
SWIDTH 479 0
DWIDTH 16 0
BBX 14 9 3 2
BITMAP
7FFC
FFFC
0018
0018
0018
0018
0018
0018
0020
ENDCHAR

STARTCHAR hyphen
ENCODING 173
SWIDTH 273 0
DWIDTH 8 0
BBX 6 2 3 8
BITMAP
FC
FC
ENDCHAR

STARTCHAR registered
ENCODING 174
SWIDTH 604 0
DWIDTH 18 0
BBX 20 24 1 0
BITMAP
007E00
01C780
0300C0
040040
080060
100020
21FE30
210210
410310
430310
820210
820610
83FC10
822010
823030
861020
841820
840840
840CC0
400180
600300
300600
1C1800
07E000
ENDCHAR

STARTCHAR macron
ENCODING 175
SWIDTH 273 0
DWIDTH 9 0
BBX 8 2 4 20
BITMAP
7F
FE
ENDCHAR

STARTCHAR degree
ENCODING 176
SWIDTH 328 0
DWIDTH 10 0
BBX 8 10 4 13
BITMAP
1E
23
41
41
81
81
81
82
44
38
ENDCHAR

STARTCHAR plusminus
ENCODING 177
SWIDTH 479 0
DWIDTH 16 0
BBX 16 20 1 0
BITMAP
0060
0060
0060
0060
0060
0040
00C0
1FFF
3FFE
00C0
0080
0080
0180
0180
0180
0180
0000
0004
7FFC
FFFC
ENDCHAR

STARTCHAR twosuperior
ENCODING 178
SWIDTH 273 0
DWIDTH 9 0
BBX 10 13 2 9
BITMAP
0F80
18C0
10C0
20C0
00C0
0180
0300
0E00
1800
2000
4000
7F80
FF00
ENDCHAR

STARTCHAR threesuperior
ENCODING 179
SWIDTH 273 0
DWIDTH 8 0
BBX 8 15 3 8
BITMAP
0E
3F
21
61
03
02
1E
03
01
01
C1
83
C6
7C
38
ENDCHAR

STARTCHAR acute
ENCODING 180
SWIDTH 273 0
DWIDTH 9 0
BBX 7 5 5 19
BITMAP
0E
1C
38
60
C0
ENDCHAR

STARTCHAR mu
ENCODING 181
SWIDTH 456 0
DWIDTH 14 0
BBX 15 23 0 -6
BITMAP
0C06
0C06
0C0E
180C
180C
180C
180C
180C
3818
3018
3018
3018
3038
3078
7FF0
7FB0
7E30
6000
6000
6000
C000
C000
C000
ENDCHAR

STARTCHAR paragraph
ENCODING 182
SWIDTH 440 0
DWIDTH 15 0
BBX 15 29 4 -5
BITMAP
03FE
0FFC
1F98
3F10
3F10
7F30
7F30
7F30
7E20
FE20
7E20
7E60
7E60
3E60
1C40
0440
0440
0CC0
0CC0
0CC0
0880
0880
0980
1980
1980
1900
1100
1100
3300
ENDCHAR

STARTCHAR periodcentered
ENCODING 183
SWIDTH 228 0
DWIDTH 7 0
BBX 3 4 4 10
BITMAP
60
E0
E0
C0
ENDCHAR

STARTCHAR cedilla
ENCODING 184
SWIDTH 273 0
DWIDTH 9 0
BBX 6 6 0 -6
BITMAP
08
10
3C
0C
CC
78
ENDCHAR

STARTCHAR onesuperior
ENCODING 185
SWIDTH 273 0
DWIDTH 9 0
BBX 5 14 5 9
BITMAP
08
18
38
F8
10
10
10
10
30
20
20
20
20
60
ENDCHAR

STARTCHAR ordmasculine
ENCODING 186
SWIDTH 299 0
DWIDTH 10 0
BBX 9 15 3 9
BITMAP
0E00
1F00
3100
2180
6100
4100
4100
4300
6200
7E00
3800
0000
0000
FE00
FE00
ENDCHAR

STARTCHAR guillemotright
ENCODING 187
SWIDTH 456 0
DWIDTH 16 0
BBX 12 11 3 3
BITMAP
2080
3080
30C0
1860
0C70
0820
1860
30C0
6180
4100
8200
ENDCHAR

STARTCHAR onequarter
ENCODING 188
SWIDTH 684 0
DWIDTH 22 0
BBX 18 24 4 0
BITMAP
0000C0
080080
080100
380300
F80200
100400
100800
100800
101000
302000
2060C0
204080
208180
218380
610480
020D80
060900
041100
082100
183FC0
107F80
200300
600200
C00200
ENDCHAR

STARTCHAR onehalf
ENCODING 189
SWIDTH 684 0
DWIDTH 21 0
BBX 19 24 3 0
BITMAP
0000C0
040080
040100
1C0300
780200
080400
080C00
080800
081000
183000
102000
1043C0
10C460
108820
311820
020020
020040
0401C0
080300
180C00
101800
203000
603FC0
C03FC0
ENDCHAR

STARTCHAR threequarters
ENCODING 190
SWIDTH 684 0
DWIDTH 22 0
BBX 20 23 3 0
BITMAP
0E0030
1F8060
218040
618080
018180
030100
0E0200
030600
010400
010860
C31840
8210C0
C62140
7C4240
0046C0
008480
010880
031080
021FE0
043FC0
0C0180
080100
100100
ENDCHAR

STARTCHAR questiondown
ENCODING 191
SWIDTH 501 0
DWIDTH 15 0
BBX 11 23 2 -6
BITMAP
0180
0180
0380
0000
0000
0000
0300
0300
0700
0600
0E00
1C00
3800
3000
6000
C000
C060
C060
C0E0
C1C0
E380
FF00
7E00
ENDCHAR

STARTCHAR Agrave
ENCODING 192
SWIDTH 547 0
DWIDTH 17 0
BBX 17 28 0 0
BITMAP
007800
003800
001C00
000C00
000600
000000
001C00
003C00
003C00
007C00
006C00
00EC00
00CC00
01CE00
018E00
038600
030600
070600
060600
0FFE00
0FFF00
1C0700
180300
380300
300300
700300
600380
E00380
ENDCHAR

STARTCHAR Aacute
ENCODING 193
SWIDTH 547 0
DWIDTH 17 0
BBX 17 28 0 0
BITMAP
000380
000700
000E00
001800
003000
000000
001C00
003C00
003C00
007C00
006C00
00EC00
00CC00
01CE00
018E00
038600
030600
070600
060600
0FFE00
0FFF00
1C0700
180300
380300
300300
700300
600380
E00380
ENDCHAR

STARTCHAR Acircumflex
ENCODING 194
SWIDTH 547 0
DWIDTH 17 0
BBX 17 28 0 0
BITMAP
000E00
001E00
003600
006300
00C300
000000
001C00
003C00
003C00
007C00
006C00
00EC00
00CC00
01CE00
018E00
038600
030600
070600
060600
0FFE00
0FFF00
1C0700
180300
380300
300300
700300
600380
E00380
ENDCHAR

STARTCHAR Atilde
ENCODING 195
SWIDTH 547 0
DWIDTH 17 0
BBX 18 28 0 0
BITMAP
003840
007CC0
00CF80
008700
000000
000000
001C00
003C00
003C00
007C00
006C00
00EC00
00CC00
01CE00
018E00
038600
030600
070600
060600
0FFE00
0FFF00
1C0700
180300
380300
300300
700300
600380
E00380
ENDCHAR

STARTCHAR Adieresis
ENCODING 196
SWIDTH 547 0
DWIDTH 17 0
BBX 17 27 0 0
BITMAP
003180
007380
006300
000000
000000
001C00
003C00
003C00
007C00
006C00
00EC00
00CC00
01CE00
018E00
038600
030600
070600
060600
0FFE00
0FFF00
1C0700
180300
380300
300300
700300
600380
E00380
ENDCHAR

STARTCHAR Aring
ENCODING 197
SWIDTH 547 0
DWIDTH 17 0
BBX 17 28 0 0
BITMAP
001C00
003200
002200
002600
001C00
000000
001C00
003C00
003C00
007C00
006C00
00EC00
00CC00
01CE00
018E00
038600
030600
070600
060600
0FFE00
0FFF00
1C0700
180300
380300
300300
700300
600380
E00380
ENDCHAR

STARTCHAR AE
ENCODING 198
SWIDTH 820 0
DWIDTH 26 0
BBX 28 24 0 0
BITMAP
000FFFF0
001FFFF0
001FFFF0
0031C000
0031C000
00718000
00618000
00E18000
00C18000
01C38000
01830000
0383FFC0
0303FF80
0703FF80
07FF0000
0FFF0000
0FFE0000
1C060000
18060000
38060000
300E0000
700FFF80
600FFF80
E00FFF80
ENDCHAR

STARTCHAR Ccedilla
ENCODING 199
SWIDTH 592 0
DWIDTH 18 0
BBX 16 30 3 -6
BITMAP
00F0
03F8
07FC
0E0E
1C06
3806
3007
7007
6000
6000
C000
C000
C000
C000
C000
C00E
C00C
C01C
C018
E030
7070
7FE0
3F80
0F00
0400
0800
1E00
0600
6600
3C00
ENDCHAR

STARTCHAR Egrave
ENCODING 200
SWIDTH 547 0
DWIDTH 17 0
BBX 17 28 2 0
BITMAP
01E000
00E000
007000
003000
001800
000000
0FFF80
0FFF80
0C0000
0C0000
1C0000
180000
180000
180000
180000
380000
3FFE00
3FFE00
300000
300000
700000
600000
600000
600000
600000
E00000
FFFC00
FFFC00
ENDCHAR

STARTCHAR Eacute
ENCODING 201
SWIDTH 547 0
DWIDTH 17 0
BBX 17 28 2 0
BITMAP
000700
000E00
001C00
003000
006000
000000
0FFF80
0FFF80
0C0000
0C0000
1C0000
180000
180000
180000
180000
380000
3FFE00
3FFE00
300000
300000
700000
600000
600000
600000
600000
E00000
FFFC00
FFFC00
ENDCHAR

STARTCHAR Ecircumflex
ENCODING 202
SWIDTH 547 0
DWIDTH 17 0
BBX 17 28 2 0
BITMAP
001C00
003C00
006C00
00C600
018600
000000
0FFF80
0FFF80
0C0000
0C0000
1C0000
180000
180000
180000
180000
380000
3FFE00
3FFE00
300000
300000
700000
600000
600000
600000
600000
E00000
FFFC00
FFFC00
ENDCHAR

STARTCHAR Edieresis
ENCODING 203
SWIDTH 547 0
DWIDTH 17 0
BBX 17 27 2 0
BITMAP
00C600
01CE00
018C00
000000
000000
0FFF80
0FFF80
0C0000
0C0000
1C0000
180000
180000
180000
180000
380000
3FFE00
3FFE00
300000
300000
700000
600000
600000
600000
600000
E00000
FFFC00
FFFC00
ENDCHAR

STARTCHAR Igrave
ENCODING 204
SWIDTH 228 0
DWIDTH 7 0
BBX 8 28 3 0
BITMAP
3C
1C
0E
06
03
00
0C
0C
0C
1C
18
18
18
18
38
30
30
30
30
70
60
60
60
60
E0
C0
C0
C0
ENDCHAR

STARTCHAR Iacute
ENCODING 205
SWIDTH 228 0
DWIDTH 7 0
BBX 10 28 3 0
BITMAP
01C0
0380
0700
0C00
1800
0000
0C00
0C00
0C00
1C00
1800
1800
1800
1800
3800
3000
3000
3000
3000
7000
6000
6000
6000
6000
E000
C000
C000
C000
ENDCHAR

STARTCHAR Icircumflex
ENCODING 206
SWIDTH 228 0
DWIDTH 7 0
BBX 9 28 3 0
BITMAP
0700
0F00
1B00
3180
6180
0000
0C00
0C00
0C00
1C00
1800
1800
1800
1800
3800
3000
3000
3000
3000
7000
6000
6000
6000
6000
E000
C000
C000
C000
ENDCHAR

STARTCHAR Idieresis
ENCODING 207
SWIDTH 228 0
DWIDTH 7 0
BBX 10 27 3 0
BITMAP
18C0
39C0
3180
0000
0000
0C00
0C00
0C00
1C00
1800
1800
1800
1800
3800
3000
3000
3000
3000
7000
6000
6000
6000
6000
E000
C000
C000
C000
ENDCHAR

STARTCHAR Eth
ENCODING 208
SWIDTH 592 0
DWIDTH 19 0
BBX 18 24 2 0
BITMAP
07FC00
07FE00
07FF00
0E0780
0C0380
0C0180
0C01C0
0C01C0
0C01C0
1C01C0
1C0180
7F8180
FF0180
180180
180380
380300
300300
300700
300600
300C00
701C00
7FF800
7FF000
7FC000
ENDCHAR

STARTCHAR Ntilde
ENCODING 209
SWIDTH 592 0
DWIDTH 19 0
BBX 19 28 2 0
BITMAP
007080
00F980
019F00
010E00
000000
000000
0E0060
0E0060
0F0060
1F00E0
1B00C0
1B80C0
1980C0
1980C0
39C1C0
30C180
30C180
306180
306180
707380
603300
603300
603B00
601B00
E01F00
C01E00
C00E00
C00E00
ENDCHAR

STARTCHAR Ograve
ENCODING 210
SWIDTH 638 0
DWIDTH 21 0
BBX 18 28 3 0
BITMAP
01E000
00E000
007000
003000
001800
000000
00FC00
03FF00
0F0780
1C0180
3801C0
3000C0
7000C0
6000C0
6000C0
E000C0
C000C0
C000C0
C001C0
C00180
C00180
C00380
C00300
E00700
600E00
783C00
3FF000
0FC000
ENDCHAR

STARTCHAR Oacute
ENCODING 211
SWIDTH 638 0
DWIDTH 21 0
BBX 18 28 3 0
BITMAP
000700
000E00
001C00
003000
006000
000000
00FC00
03FF00
0F0780
1C0180
3801C0
3000C0
7000C0
6000C0
6000C0
E000C0
C000C0
C000C0
C001C0
C00180
C00180
C00380
C00300
E00700
600E00
783C00
3FF000
0FC000
ENDCHAR

STARTCHAR Ocircumflex
ENCODING 212
SWIDTH 638 0
DWIDTH 21 0
BBX 18 28 3 0
BITMAP
001C00
003C00
006C00
00C600
018600
000000
00FC00
03FF00
0F0780
1C0180
3801C0
3000C0
7000C0
6000C0
6000C0
E000C0
C000C0
C000C0
C001C0
C00180
C00180
C00380
C00300
E00700
600E00
783C00
3FF000
0FC000
ENDCHAR

STARTCHAR Otilde
ENCODING 213
SWIDTH 638 0
DWIDTH 21 0
BBX 18 28 3 0
BITMAP
00E100
01F300
033E00
021C00
000000
000000
00FC00
03FF00
0F0780
1C0180
3801C0
3000C0
7000C0
6000C0
6000C0
E000C0
C000C0
C000C0
C001C0
C00180
C00180
C00380
C00300
E00700
600E00
783C00
3FF000
0FC000
ENDCHAR

STARTCHAR Odieresis
ENCODING 214
SWIDTH 638 0
DWIDTH 21 0
BBX 18 27 3 0
BITMAP
006300
00E700
00C600
000000
000000
00FC00
03FF00
0F0780
1C0180
3801C0
3000C0
7000C0
6000C0
6000C0
E000C0
C000C0
C000C0
C001C0
C00180
C00180
C00380
C00300
E00700
600E00
783C00
3FF000
0FC000
ENDCHAR

STARTCHAR multiply
ENCODING 215
SWIDTH 479 0
DWIDTH 15 0
BBX 14 16 2 0
BITMAP
1004
300C
381C
1838
1C70
0CE0
07C0
0780
0700
0F80
1DC0
38C0
7060
E070
C030
8020
ENDCHAR

STARTCHAR Oslash
ENCODING 216
SWIDTH 638 0
DWIDTH 20 0
BBX 21 24 1 0
BITMAP
001E08
007F88
01FFF0
03C0F0
0700F0
0E00F0
0C0130
1C0230
180438
180C38
381830
303030
306030
304030
308070
310060
3200E0
3C00C0
3801C0
380380
3E0700
4FFE00
87FC00
81E000
ENDCHAR

STARTCHAR Ugrave
ENCODING 217
SWIDTH 592 0
DWIDTH 19 0
BBX 18 28 3 0
BITMAP
01E000
00E000
007000
003000
001800
000000
1800C0
1800C0
1800C0
3801C0
300180
300180
300180
700180
600380
600300
600300
600300
E00300
C00700
C00600
C00600
C00E00
E00C00
601C00
787800
3FF000
0FC000
ENDCHAR

STARTCHAR Uacute
ENCODING 218
SWIDTH 592 0
DWIDTH 19 0
BBX 18 28 3 0
BITMAP
000E00
001C00
003800
006000
00C000
000000
1800C0
1800C0
1800C0
3801C0
300180
300180
300180
700180
600380
600300
600300
600300
E00300
C00700
C00600
C00600
C00E00
E00C00
601C00
787800
3FF000
0FC000
ENDCHAR

STARTCHAR Ucircumflex
ENCODING 219
SWIDTH 592 0
DWIDTH 19 0
BBX 18 28 3 0
BITMAP
001C00
003C00
006C00
00C600
018600
000000
1800C0
1800C0
1800C0
3801C0
300180
300180
300180
700180
600380
600300
600300
600300
E00300
C00700
C00600
C00600
C00E00
E00C00
601C00
787800
3FF000
0FC000
ENDCHAR

STARTCHAR Udieresis
ENCODING 220
SWIDTH 592 0
DWIDTH 19 0
BBX 18 27 3 0
BITMAP
00C600
01CE00
018C00
000000
000000
1800C0
1800C0
1800C0
3801C0
300180
300180
300180
700180
600380
600300
600300
600300
E00300
C00700
C00600
C00600
C00E00
E00C00
601C00
787800
3FF000
0FC000
ENDCHAR

STARTCHAR Yacute
ENCODING 221
SWIDTH 547 0
DWIDTH 17 0
BBX 17 28 4 0
BITMAP
001C00
003800
007000
00C000
018000
000000
E00780
E00700
600E00
701C00
701800
303800
307000
386000
18E000
19C000
1D8000
0F8000
0F0000
0E0000
0E0000
0E0000
0C0000
0C0000
1C0000
180000
180000
180000
ENDCHAR

STARTCHAR Thorn
ENCODING 222
SWIDTH 547 0
DWIDTH 17 0
BBX 16 24 2 0
BITMAP
0C00
0C00
0C00
1C00
1FF8
1FFE
1FFE
1807
1807
3807
3007
3007
3006
300E
301C
7FFC
7FF8
7FE0
6000
6000
E000
E000
C000
C000
ENDCHAR

STARTCHAR germandbls
ENCODING 223
SWIDTH 501 0
DWIDTH 16 0
BBX 14 24 3 0
BITMAP
00F0
03F8
07FC
0E1C
0C0C
180C
180C
180C
181C
3838
39F0
31E0
31F8
3038
3018
7018
6018
6018
6018
6030
6070
E7E0
C7C0
8700
ENDCHAR

STARTCHAR agrave
ENCODING 224
SWIDTH 456 0
DWIDTH 14 0
BBX 12 24 2 0
BITMAP
0F00
0700
0380
0180
00C0
0000
0000
07E0
0FF0
1870
3030
3030
0030
0070
07F0
3FF0
7860
E060
C060
C0E0
C0E0
E3E0
FEF0
7C70
ENDCHAR

STARTCHAR aacute
ENCODING 225
SWIDTH 456 0
DWIDTH 14 0
BBX 13 24 2 0
BITMAP
0038
0070
00E0
0180
0300
0000
0000
07E0
0FF0
1870
3030
3030
0030
0070
07F0
3FF0
7860
E060
C060
C0E0
C0E0
E3E0
FEF0
7C70
ENDCHAR

STARTCHAR acircumflex
ENCODING 226
SWIDTH 456 0
DWIDTH 14 0
BBX 12 24 2 0
BITMAP
00E0
01E0
0360
0630
0C30
0000
0000
07E0
0FF0
1870
3030
3030
0030
0070
07F0
3FF0
7860
E060
C060
C0E0
C0E0
E3E0
FEF0
7C70
ENDCHAR

STARTCHAR atilde
ENCODING 227
SWIDTH 456 0
DWIDTH 14 0
BBX 14 23 2 0
BITMAP
0384
07CC
0CF8
0870
0000
0000
07E0
0FF0
1870
3030
3030
0030
0070
07F0
3FF0
7860
E060
C060
C0E0
C0E0
E3E0
FEF0
7C70
ENDCHAR

STARTCHAR adieresis
ENCODING 228
SWIDTH 456 0
DWIDTH 14 0
BBX 12 23 2 0
BITMAP
0630
0E70
0C60
0000
0000
0000
07E0
0FF0
1870
3030
3030
0030
0070
07F0
3FF0
7860
E060
C060
C0E0
C0E0
E3E0
FEF0
7C70
ENDCHAR

STARTCHAR aring
ENCODING 229
SWIDTH 456 0
DWIDTH 14 0
BBX 12 24 2 0
BITMAP
01C0
0320
0220
0260
01C0
0000
0000
07E0
0FF0
1870
3030
3030
0030
0070
07F0
3FF0
7860
E060
C060
C0E0
C0E0
E3E0
FEF0
7C70
ENDCHAR

STARTCHAR ae
ENCODING 230
SWIDTH 729 0
DWIDTH 23 0
BBX 22 17 2 0
BITMAP
07E1E0
0FF7F8
183E38
30381C
70380C
00300C
00F00C
1FFFFC
3F7FFC
706000
E06000
C06018
C0E030
C1F030
E3B8E0
FF3FC0
7C1F80
ENDCHAR

STARTCHAR ccedilla
ENCODING 231
SWIDTH 410 0
DWIDTH 13 0
BBX 12 23 2 -6
BITMAP
07C0
0FE0
1C70
3830
3030
6030
6000
6000
E000
C000
C020
C060
E0C0
61C0
7F80
3F00
1C00
0800
1000
3C00
0C00
CC00
7800
ENDCHAR

STARTCHAR egrave
ENCODING 232
SWIDTH 456 0
DWIDTH 14 0
BBX 13 24 2 0
BITMAP
0F00
0700
0380
0180
00C0
0000
0000
03C0
0FF0
1C30
3838
3018
6018
6018
7FF8
FFF8
C000
C000
C030
C060
E0E0
71C0
7F80
1F00
ENDCHAR

STARTCHAR eacute
ENCODING 233
SWIDTH 456 0
DWIDTH 14 0
BBX 13 24 2 0
BITMAP
0038
0070
00E0
0180
0300
0000
0000
03C0
0FF0
1C30
3838
3018
6018
6018
7FF8
FFF8
C000
C000
C030
C060
E0E0
71C0
7F80
1F00
ENDCHAR

STARTCHAR ecircumflex
ENCODING 234
SWIDTH 456 0
DWIDTH 14 0
BBX 13 24 2 0
BITMAP
00E0
01E0
0360
0630
0C30
0000
0000
03C0
0FF0
1C30
3838
3018
6018
6018
7FF8
FFF8
C000
C000
C030
C060
E0E0
71C0
7F80
1F00
ENDCHAR

STARTCHAR edieresis
ENCODING 235
SWIDTH 456 0
DWIDTH 14 0
BBX 13 23 2 0
BITMAP
0318
0738
0630
0000
0000
0000
03C0
0FF0
1C30
3838
3018
6018
6018
7FF8
FFF8
C000
C000
C030
C060
E0E0
71C0
7F80
1F00
ENDCHAR

STARTCHAR igrave
ENCODING 236
SWIDTH 228 0
DWIDTH 7 0
BBX 7 24 2 0
BITMAP
78
38
1C
0C
06
00
00
18
18
18
30
30
30
30
30
60
60
60
60
60
60
C0
C0
C0
ENDCHAR

STARTCHAR iacute
ENCODING 237
SWIDTH 228 0
DWIDTH 7 0
BBX 9 24 2 0
BITMAP
0380
0700
0E00
1800
3000
0000
0000
1800
1800
1800
3000
3000
3000
3000
3000
6000
6000
6000
6000
6000
6000
C000
C000
C000
ENDCHAR

STARTCHAR icircumflex
ENCODING 238
SWIDTH 228 0
DWIDTH 7 0
BBX 8 24 2 0
BITMAP
0E
1E
36
63
C3
00
00
18
18
18
30
30
30
30
30
60
60
60
60
60
60
C0
C0
C0
ENDCHAR

STARTCHAR idieresis
ENCODING 239
SWIDTH 228 0
DWIDTH 7 0
BBX 9 23 2 0
BITMAP
3180
7380
6300
0000
0000
0000
1800
1800
1800
3000
3000
3000
3000
3000
6000
6000
6000
6000
6000
6000
C000
C000
C000
ENDCHAR

STARTCHAR eth
ENCODING 240
SWIDTH 456 0
DWIDTH 15 0
BBX 13 24 2 0
BITMAP
0410
0F30
03E0
03C0
0FC0
18E0
00E0
03E0
0FF0
1FF0
3830
3038
6038
6038
6038
E030
C030
C030
E070
E060
60E0
7FC0
3F80
1E00
ENDCHAR

STARTCHAR ntilde
ENCODING 241
SWIDTH 456 0
DWIDTH 15 0
BBX 14 23 2 0
BITMAP
0384
07CC
0CF8
0870
0000
0000
19F0
1BF8
1E38
3C18
3818
3018
3018
3018
7030
6030
6030
6030
6030
6030
C060
C060
C060
ENDCHAR

STARTCHAR ograve
ENCODING 242
SWIDTH 456 0
DWIDTH 14 0
BBX 13 24 2 0
BITMAP
0F00
0700
0380
0180
00C0
0000
0000
03C0
0FE0
1FF0
3830
3038
6038
6038
6038
E030
C030
C030
E070
E060
60E0
7FC0
3F80
1E00
ENDCHAR

STARTCHAR oacute
ENCODING 243
SWIDTH 456 0
DWIDTH 14 0
BBX 13 24 2 0
BITMAP
0038
0070
00E0
0180
0300
0000
0000
03C0
0FE0
1FF0
3830
3038
6038
6038
6038
E030
C030
C030
E070
E060
60E0
7FC0
3F80
1E00
ENDCHAR

STARTCHAR ocircumflex
ENCODING 244
SWIDTH 456 0
DWIDTH 14 0
BBX 13 24 2 0
BITMAP
00E0
01E0
0360
0630
0C30
0000
0000
03C0
0FE0
1FF0
3830
3038
6038
6038
6038
E030
C030
C030
E070
E060
60E0
7FC0
3F80
1E00
ENDCHAR

STARTCHAR otilde
ENCODING 245
SWIDTH 456 0
DWIDTH 14 0
BBX 13 23 2 0
BITMAP
0708
0F98
19F0
10E0
0000
0000
03C0
0FE0
1FF0
3830
3038
6038
6038
6038
E030
C030
C030
E070
E060
60E0
7FC0
3F80
1E00
ENDCHAR

STARTCHAR odieresis
ENCODING 246
SWIDTH 456 0
DWIDTH 14 0
BBX 13 23 2 0
BITMAP
0630
0E70
0C60
0000
0000
0000
03C0
0FE0
1FF0
3830
3038
6038
6038
6038
E030
C030
C030
E070
E060
60E0
7FC0
3F80
1E00
ENDCHAR

STARTCHAR divide
ENCODING 247
SWIDTH 479 0
DWIDTH 16 0
BBX 14 16 2 0
BITMAP
01C0
0180
0380
0000
0000
0000
0000
7FFC
FFF8
0000
0000
0000
0000
0600
0E00
0E00
ENDCHAR

STARTCHAR oslash
ENCODING 248
SWIDTH 501 0
DWIDTH 15 0
BBX 16 18 0 0
BITMAP
01E1
07F2
0FFC
0C1C
181C
183C
306C
304C
308C
7118
7218
7418
7838
7030
3870
7FE0
DFC0
8F00
ENDCHAR

STARTCHAR ugrave
ENCODING 249
SWIDTH 456 0
DWIDTH 14 0
BBX 13 24 2 0
BITMAP
0F00
0700
0380
0180
00C0
0000
0000
3018
3018
3038
6030
6030
6030
6030
6030
E060
C060
C060
C060
C0E0
C1E0
FFC0
FEC0
78C0
ENDCHAR

STARTCHAR uacute
ENCODING 250
SWIDTH 456 0
DWIDTH 14 0
BBX 13 24 2 0
BITMAP
0038
0070
00E0
0180
0300
0000
0000
3018
3018
3038
6030
6030
6030
6030
6030
E060
C060
C060
C060
C0E0
C1E0
FFC0
FEC0
78C0
ENDCHAR

STARTCHAR ucircumflex
ENCODING 251
SWIDTH 456 0
DWIDTH 14 0
BBX 13 24 2 0
BITMAP
00E0
01E0
0360
0630
0C30
0000
0000
3018
3018
3038
6030
6030
6030
6030
6030
E060
C060
C060
C060
C0E0
C1E0
FFC0
FEC0
78C0
ENDCHAR

STARTCHAR udieresis
ENCODING 252
SWIDTH 456 0
DWIDTH 14 0
BBX 13 23 2 0
BITMAP
0630
0E70
0C60
0000
0000
0000
3018
3018
3038
6030
6030
6030
6030
6030
E060
C060
C060
C060
C0E0
C1E0
FFC0
FEC0
78C0
ENDCHAR

STARTCHAR yacute
ENCODING 253
SWIDTH 410 0
DWIDTH 13 0
BBX 15 30 0 -6
BITMAP
001C
0038
0070
00C0
0180
0000
0000
0000
1C06
1C0C
1C0C
0C18
0C18
0C30
0C30
0C60
0C60
0EC0
0EC0
0F80
0780
0700
0700
0600
0600
0C00
0C00
9800
F800
E000
ENDCHAR

STARTCHAR thorn
ENCODING 254
SWIDTH 456 0
DWIDTH 13 0
BBX 14 30 0 -6
BITMAP
0600
0600
0600
0400
0C00
0C00
0C00
0CF0
0FF8
0FF8
1E1C
1C1C
180C
180C
180C
301C
3018
3018
3018
3030
3870
7FE0
6FC0
6700
6000
6000
4000
C000
C000
C000
ENDCHAR

STARTCHAR ydieresis
ENCODING 255
SWIDTH 410 0
DWIDTH 13 0
BBX 15 29 0 -6
BITMAP
0C60
1CE0
18C0
0000
0000
0000
0000
1C06
1C0C
1C0C
0C18
0C18
0C30
0C30
0C60
0C60
0EC0
0EC0
0F80
0780
0700
0700
0600
0600
0C00
0C00
9800
F800
E000
ENDCHAR
ENDFONT
